<?xml version="1.0" encoding="UTF-8"?>
<!DOCTYPE svg PUBLIC "-//W3C//DTD SVG 1.1//EN" "http://www.w3.org/Graphics/SVG/1.1/DTD/svg11.dtd">
<!-- Creator: CorelDRAW 2019 (64 Bit) -->
<svg xmlns="http://www.w3.org/2000/svg" xml:space="preserve" width="736px" height="263px" version="1.1" style="shape-rendering:geometricPrecision; text-rendering:geometricPrecision; image-rendering:optimizeQuality; fill-rule:evenodd; clip-rule:evenodd"
viewBox="0 0 246.94 88.24"
 xmlns:xlink="http://www.w3.org/1999/xlink">
 <defs>
  <style type="text/css">
   <![CDATA[
    .fil2 {fill:#1688FB}
    .fil1 {fill:#A3A8A8}
    .fil3 {fill:#1688FB;fill-rule:nonzero}
    .fil4 {fill:#A3A8A8;fill-rule:nonzero}
    .fil0 {fill:#DEF2F7;fill-rule:nonzero}
   ]]>
  </style>
 </defs>
 <g id="Camada_x0020_1">
  <metadata id="CorelCorpID_0Corel-Layer"/>
  <g id="_3083745040128">
   <path class="fil0" d="M109.16 48.76c0,1.98 -0.51,3.74 -1.56,5.26 -1.04,1.53 -2.54,2.72 -4.5,3.57 -1.96,0.86 -4.26,1.28 -6.92,1.28 -5.28,0 -9.49,-1.54 -12.62,-4.61l3.83 -4.23c2.44,2.14 5.3,3.22 8.6,3.22 1.62,0 2.91,-0.34 3.87,-1.04 0.97,-0.69 1.45,-1.64 1.45,-2.87 0,-0.79 -0.17,-1.45 -0.53,-1.97 -0.35,-0.53 -0.93,-1.01 -1.76,-1.44 -0.82,-0.43 -1.99,-0.88 -3.51,-1.34 -2.5,-0.77 -4.5,-1.61 -6.01,-2.53 -1.5,-0.92 -2.59,-1.98 -3.28,-3.18 -0.68,-1.19 -1.03,-2.62 -1.03,-4.25 0,-1.9 0.54,-3.54 1.61,-4.94 1.07,-1.41 2.51,-2.48 4.34,-3.22 1.82,-0.74 3.85,-1.1 6.07,-1.1 4.75,0 8.56,1.37 11.45,4.11l-3.57 4.11c-1.07,-0.9 -2.23,-1.56 -3.46,-2.01 -1.24,-0.44 -2.51,-0.67 -3.81,-0.67 -1.48,0 -2.64,0.28 -3.5,0.82 -0.86,0.55 -1.3,1.32 -1.3,2.32 0,0.69 0.2,1.26 0.58,1.71 0.39,0.45 1.02,0.88 1.92,1.27 0.9,0.39 2.25,0.87 4.04,1.43 2.16,0.67 3.92,1.43 5.3,2.28 1.39,0.85 2.45,1.92 3.19,3.22 0.75,1.3 1.11,2.89 1.11,4.8zm18.24 -15.93c3.09,0 5.35,1.12 6.78,3.37 1.44,2.25 2.16,5.45 2.16,9.59 0,2.53 -0.38,4.78 -1.12,6.76 -0.75,1.97 -1.82,3.52 -3.24,4.64 -1.41,1.12 -3.09,1.68 -5.04,1.68 -2.37,0 -4.31,-0.85 -5.8,-2.56l0 11.22 -7.28 0.76 0 -34.66 6.45 0 0.32 2.74c0.96,-1.21 2.01,-2.1 3.18,-2.68 1.17,-0.58 2.36,-0.86 3.59,-0.86zm-2.26 5.37c-0.81,0 -1.54,0.23 -2.19,0.71 -0.66,0.49 -1.26,1.19 -1.81,2.11l0 10.32c0.52,0.77 1.06,1.32 1.62,1.67 0.56,0.35 1.22,0.52 1.97,0.52 1.34,0 2.35,-0.61 3.05,-1.82 0.7,-1.21 1.05,-3.16 1.05,-5.83 0,-1.96 -0.14,-3.51 -0.43,-4.64 -0.28,-1.13 -0.69,-1.91 -1.23,-2.37 -0.54,-0.45 -1.21,-0.67 -2.03,-0.67zm31.32 19.89c-1.11,3.3 -2.75,5.78 -4.93,7.44 -2.18,1.67 -5.1,2.61 -8.77,2.8l-0.83 -5.13c1.6,-0.2 2.89,-0.5 3.88,-0.88 0.99,-0.4 1.79,-0.93 2.4,-1.6 0.6,-0.66 1.13,-1.54 1.6,-2.63l-2.49 0 -7.76 -24.46 7.69 0 4.74 19.8 5.16 -19.8 7.46 0 -8.15 24.46z"/>
   <path class="fil1" d="M35.76 72.17c-8.91,-6.94 -7.43,-12.93 -11.76,-17.73 0.07,1.98 1.44,5.94 1.99,8.12 1.08,4.34 1.25,3.6 4.1,6.04l11.1 9.07 11.21 -9.26c2.91,-2.59 2.74,-1.45 4.04,-6.13 0.52,-1.9 1.8,-6.07 1.89,-7.79 -1.99,1.73 -4.51,9.59 -6.82,12.72 -1.99,2.69 -0.98,1.14 -2.34,2.59 -1.54,1.63 -6.34,5.83 -7.98,6.77 -1.21,-0.52 -4.1,-3.37 -5.43,-4.4z"/>
   <path class="fil2" d="M20.32 27.62c2.12,0.82 19.46,6.91 20.61,6.95 0.61,0.02 19.35,-6.23 20.76,-6.93 -0.05,-2.05 -4.22,-17.59 -5.11,-21.54 -0.54,-2.41 -0.32,-1.37 -5.98,-3.24 -1.73,-0.57 -8.24,-2.81 -9.43,-2.86l-13.92 4.18c-1.95,0.64 -1.69,1.93 -2.17,3.94 -0.92,3.86 -4.38,16.85 -4.76,19.5z"/>
   <path class="fil2" d="M23.97 46.37c2.07,0.5 4.65,1.91 6.92,2.64 2.88,0.92 4.89,1.18 7.94,1.77 1.33,-0.02 3.74,-0.33 4.64,0.34l7.72 -2.09c2.46,-0.81 4.9,-2.14 7.06,-2.7 0.42,-0.44 10.41,-5.39 12.03,-6.23 2.04,-1.06 4.11,-2.21 6,-3.23 1.55,-0.84 4.74,-2.34 5.82,-3.32 -3.7,-0.88 -7.43,-1.62 -11.14,-2.41 -5.87,-1.24 -4.78,-0.93 -10.21,0.97 -2.37,0.83 -18.9,6.63 -19.84,6.57l-19.81 -6.65c-5.59,-1.9 -4.13,-2.19 -10.23,-0.85 -3.6,0.79 -7.42,1.44 -10.87,2.41 3.69,2.58 23.34,12.23 23.97,12.78z"/>
   <path class="fil2" d="M45.35 88.17c1.42,-0.69 28.97,-35.4 30.48,-43.68l-10.84 2.64c-1.19,4.12 -2.09,8.02 -3.22,12.17 -1.6,5.88 -0.05,4.97 -5.74,9.36 -1.45,1.12 -2.8,2.34 -4.21,3.49 -6.33,5.14 -6.53,4.47 -6.5,8.76 0.01,2.38 -0.08,4.89 0.03,7.26z"/>
   <path class="fil2" d="M6.18 44.4c1.4,4.23 4.24,8.74 6.39,12.16 2.13,3.37 21.96,30.03 24.18,31.68 0.13,-2.53 0.04,-5.1 0.06,-7.64 0.04,-4.33 -0.91,-3.68 -6.71,-8.61 -8.25,-7.03 -7.63,-4.43 -9.81,-12.95 -1.01,-3.98 -2.02,-7.93 -3.2,-11.85l-10.91 -2.79z"/>
   <path class="fil1" d="M43.47 51.12c2.9,1.14 5.42,2.47 9.26,1.31 1.62,-0.49 2.79,-1.26 3.69,-2.17 1.02,-1.02 1.52,-2.11 1.83,-3.93 -2.16,0.56 -4.6,1.89 -7.06,2.7l-7.72 2.09z"/>
   <path class="fil1" d="M38.83 50.78c-3.05,-0.59 -5.06,-0.85 -7.94,-1.77 -2.27,-0.73 -4.85,-2.14 -6.92,-2.64 0.73,3.28 2.47,5.16 5.67,6.05 3.29,0.91 7.05,0.02 9.19,-1.64z"/>
   <path class="fil3" d="M195.27 62.14c-2.47,1.21 -5.69,1.82 -9.67,1.82 -5.12,0 -9.17,-1.53 -12.18,-4.6 -3,-3.06 -4.5,-7.14 -4.5,-12.24 0,-5.37 1.67,-9.75 5.03,-13.16 3.35,-3.42 7.68,-5.12 12.99,-5.12 3.32,0 6.09,0.42 8.33,1.29l0 6.99c-2.3,-1.35 -4.9,-2.01 -7.8,-2.01 -3.33,0 -5.98,1.05 -7.97,3.17 -1.98,2.13 -2.97,4.9 -2.97,8.32 0,3.33 0.94,6.01 2.82,8.04 1.89,2.03 4.44,3.05 7.65,3.05 3.03,0 5.79,-0.73 8.27,-2.2l0 6.65zm26.84 -8.91l-15.96 0c0.24,3.76 2.51,5.64 6.79,5.64 2.67,0 5.04,-0.65 7.08,-1.97l0 5.19c-2.21,1.25 -5.1,1.87 -8.68,1.87 -3.85,0 -6.86,-1.09 -9,-3.27 -2.14,-2.17 -3.21,-5.21 -3.21,-9.1 0,-3.87 1.14,-7.01 3.42,-9.43 2.28,-2.43 5.15,-3.63 8.6,-3.63 3.43,0 6.12,1.04 8.05,3.12 1.94,2.08 2.91,4.95 2.91,8.58l0 3zm-6.6 -4.42c0,-3.63 -1.47,-5.44 -4.41,-5.44 -1.21,0 -2.29,0.5 -3.23,1.49 -0.93,0.99 -1.51,2.31 -1.75,3.95l9.39 0zm11.09 14.56l0 -35.9 7.06 0 0 35.9 -7.06 0zm13.28 0l0 -35.9 7.06 0 0 35.9 -7.06 0z"/>
   <path class="fil4" d="M77.53 26.27l-1.57 0 -0.09 -3.27c-0.01,-0.34 -0.02,-0.58 -0.02,-0.71 0,-0.33 0.01,-0.64 0.03,-0.91 0.01,-0.27 0.04,-0.63 0.07,-1.09l0.01 -0.11 -0.86 4.79 -1.36 0 -0.92 -4.79c0.03,0.42 0.06,0.8 0.08,1.13 0.02,0.33 0.02,0.69 0.02,1.1 0,0.26 0,0.47 0,0.62l-0.06 3.24 -1.54 0 0.43 -7.63 1.85 0 0.85 4.93 0.8 -4.93 1.85 0 0.43 7.63zm4.54 0c-0.27,0.78 -0.66,1.38 -1.18,1.77 -0.52,0.4 -1.22,0.63 -2.09,0.67l-0.2 -1.22c0.38,-0.05 0.69,-0.12 0.93,-0.21 0.23,-0.1 0.42,-0.22 0.57,-0.39 0.14,-0.15 0.27,-0.36 0.38,-0.62l-0.6 0 -1.85 -5.84 1.84 0 1.13 4.72 1.23 -4.72 1.78 0 -1.94 5.84z"/>
  </g>
 </g>
</svg>
